<svg width="707" height="130" viewBox="0 0 707 130" fill="none" xmlns="http://www.w3.org/2000/svg">
<path d="M326.831 63.6472V129H313.229V100.85H284.448V129H270.846V63.6472H284.448V91.3918H313.229V63.6472H326.831ZM358.342 81.8434C361.825 81.8434 364.993 82.3989 367.845 83.5098C370.698 84.6208 373.145 86.2122 375.187 88.2841C377.229 90.3259 378.805 92.8181 379.916 95.7607C381.027 98.7033 381.583 102.021 381.583 105.715C381.583 109.408 381.027 112.741 379.916 115.713C378.805 118.656 377.229 121.163 375.187 123.235C373.145 125.307 370.698 126.898 367.845 128.009C364.993 129.12 361.825 129.676 358.342 129.676C354.829 129.676 351.631 129.12 348.748 128.009C345.896 126.898 343.449 125.307 341.407 123.235C339.365 121.163 337.774 118.656 336.633 115.713C335.522 112.741 334.966 109.408 334.966 105.715C334.966 102.021 335.522 98.7033 336.633 95.7607C337.774 92.8181 339.365 90.3259 341.407 88.2841C343.449 86.2122 345.896 84.6208 348.748 83.5098C351.631 82.3989 354.829 81.8434 358.342 81.8434ZM358.342 120.353C361.885 120.353 364.512 119.136 366.224 116.704C367.935 114.242 368.791 110.594 368.791 105.76C368.791 100.955 367.935 97.3371 366.224 94.905C364.512 92.4428 361.885 91.2117 358.342 91.2117C354.709 91.2117 352.036 92.4428 350.325 94.905C348.613 97.3371 347.758 100.955 347.758 105.76C347.758 110.594 348.613 114.242 350.325 116.704C352.036 119.136 354.709 120.353 358.342 120.353ZM401.053 90.2208C402.525 87.5785 404.221 85.4916 406.143 83.9602C408.064 82.4289 410.316 81.6632 412.899 81.6632C415.001 81.6632 416.712 82.1586 418.033 83.1495L417.223 92.3377C417.072 92.9382 416.832 93.3586 416.502 93.5988C416.202 93.809 415.781 93.9141 415.241 93.9141C414.76 93.9141 414.07 93.854 413.169 93.7339C412.268 93.5838 411.427 93.5087 410.647 93.5087C409.506 93.5087 408.485 93.6739 407.584 94.0042C406.713 94.3345 405.933 94.7999 405.242 95.4004C404.551 96.0009 403.921 96.7366 403.35 97.6074C402.81 98.4781 402.299 99.469 401.819 100.58V129H389.388V82.564H396.729C397.99 82.564 398.861 82.7892 399.342 83.2396C399.822 83.69 400.167 84.4707 400.378 85.5817L401.053 90.2208ZM436.135 82.564V129H423.704V82.564H436.135ZM437.621 69.3673C437.621 70.4182 437.411 71.3941 436.991 72.2949C436.571 73.1957 436 73.9914 435.279 74.682C434.589 75.3726 433.763 75.9131 432.802 76.3034C431.871 76.6938 430.865 76.889 429.784 76.889C428.764 76.889 427.788 76.6938 426.857 76.3034C425.956 75.9131 425.16 75.3726 424.47 74.682C423.779 73.9914 423.224 73.1957 422.803 72.2949C422.413 71.3941 422.218 70.4182 422.218 69.3673C422.218 68.3163 422.413 67.3405 422.803 66.4397C423.224 65.5089 423.779 64.6981 424.47 64.0075C425.16 63.3169 425.956 62.7764 426.857 62.3861C427.788 61.9957 428.764 61.8006 429.784 61.8006C430.865 61.8006 431.871 61.9957 432.802 62.3861C433.763 62.7764 434.589 63.3169 435.279 64.0075C436 64.6981 436.571 65.5089 436.991 66.4397C437.411 67.3405 437.621 68.3163 437.621 69.3673ZM480.659 87.6085C480.659 88.4793 480.508 89.335 480.208 90.1758C479.908 90.9865 479.518 91.6471 479.037 92.1575L458.184 119.632H480.073V129H443.816V123.866C443.816 123.355 443.951 122.71 444.221 121.929C444.521 121.148 444.927 120.413 445.437 119.722L466.471 91.9323H445.122V82.564H480.659V87.6085ZM508.593 81.8434C512.076 81.8434 515.243 82.3989 518.096 83.5098C520.949 84.6208 523.396 86.2122 525.437 88.2841C527.479 90.3259 529.056 92.8181 530.167 95.7607C531.278 98.7033 531.833 102.021 531.833 105.715C531.833 109.408 531.278 112.741 530.167 115.713C529.056 118.656 527.479 121.163 525.437 123.235C523.396 125.307 520.949 126.898 518.096 128.009C515.243 129.12 512.076 129.676 508.593 129.676C505.079 129.676 501.882 129.12 498.999 128.009C496.146 126.898 493.699 125.307 491.657 123.235C489.616 121.163 488.024 118.656 486.883 115.713C485.772 112.741 485.217 109.408 485.217 105.715C485.217 102.021 485.772 98.7033 486.883 95.7607C488.024 92.8181 489.616 90.3259 491.657 88.2841C493.699 86.2122 496.146 84.6208 498.999 83.5098C501.882 82.3989 505.079 81.8434 508.593 81.8434ZM508.593 120.353C512.136 120.353 514.763 119.136 516.475 116.704C518.186 114.242 519.042 110.594 519.042 105.76C519.042 100.955 518.186 97.3371 516.475 94.905C514.763 92.4428 512.136 91.2117 508.593 91.2117C504.959 91.2117 502.287 92.4428 500.575 94.905C498.864 97.3371 498.008 100.955 498.008 105.76C498.008 110.594 498.864 114.242 500.575 116.704C502.287 119.136 504.959 120.353 508.593 120.353ZM551.169 87.9688C552.1 87.068 553.06 86.2423 554.051 85.4916C555.072 84.7409 556.138 84.0954 557.249 83.5549C558.39 83.0144 559.606 82.594 560.897 82.2938C562.219 81.9935 563.645 81.8434 565.176 81.8434C567.698 81.8434 569.935 82.2787 571.887 83.1495C573.839 84.0203 575.475 85.2364 576.796 86.7978C578.148 88.3591 579.154 90.2208 579.814 92.3827C580.505 94.5446 580.85 96.9167 580.85 99.499V129H568.464V99.499C568.464 96.9167 567.864 94.92 566.662 93.5087C565.461 92.0674 563.69 91.3468 561.348 91.3468C559.606 91.3468 557.97 91.7221 556.438 92.4728C554.907 93.2235 553.451 94.2744 552.07 95.6256V129H539.638V82.564H547.295C548.857 82.564 549.893 83.2846 550.403 84.7259L551.169 87.9688Z" fill="#151515"/>
<path d="M605.094 74.2316V92.2926H628.605V102.922H605.094V129H591.492V63.6472H633.109V74.2316H605.094ZM653.506 82.564V129H641.075V82.564H653.506ZM654.992 69.3673C654.992 70.4182 654.782 71.3941 654.362 72.2949C653.941 73.1957 653.371 73.9914 652.65 74.682C651.96 75.3726 651.134 75.9131 650.173 76.3034C649.242 76.6938 648.236 76.889 647.155 76.889C646.134 76.889 645.159 76.6938 644.228 76.3034C643.327 75.9131 642.531 75.3726 641.841 74.682C641.15 73.9914 640.594 73.1957 640.174 72.2949C639.784 71.3941 639.589 70.4182 639.589 69.3673C639.589 68.3163 639.784 67.3405 640.174 66.4397C640.594 65.5089 641.15 64.6981 641.841 64.0075C642.531 63.3169 643.327 62.7764 644.228 62.3861C645.159 61.9957 646.134 61.8006 647.155 61.8006C648.236 61.8006 649.242 61.9957 650.173 62.3861C651.134 62.7764 651.96 63.3169 652.65 64.0075C653.371 64.6981 653.941 65.5089 654.362 66.4397C654.782 67.3405 654.992 68.3163 654.992 69.3673ZM706.947 129H695.012C694.111 129 693.375 128.775 692.805 128.325C692.264 127.874 691.829 127.349 691.499 126.748L682.355 111.48C682.085 112.501 681.695 113.401 681.184 114.182L673.347 126.748C672.987 127.319 672.537 127.844 671.996 128.325C671.486 128.775 670.825 129 670.014 129H658.935L674.699 105.039L659.565 82.564H671.501C672.402 82.564 673.062 82.6841 673.483 82.9243C673.903 83.1645 674.278 83.5549 674.609 84.0954L683.707 98.8234C683.857 98.313 684.052 97.8025 684.292 97.2921C684.532 96.7516 684.818 96.2261 685.148 95.7157L692.129 84.3206C692.85 83.1495 693.781 82.564 694.922 82.564H706.317L691.183 104.498L706.947 129Z" fill="#ED5521"/>
<path d="M125.061 83.7382C102.143 83.7382 83.5566 102.324 83.5566 125.243C83.5566 126.646 83.6297 128.034 83.7612 129.4H166.354C166.493 128.034 166.566 126.646 166.566 125.243C166.573 102.324 147.987 83.7382 125.061 83.7382Z" fill="url(#paint0_linear_612_110)"/>
<path d="M250.139 129.4L177.285 119.997C177.08 117.944 176.751 115.928 176.32 113.948L209.036 100.644L174.677 108.103C174.158 106.591 173.573 105.115 172.916 103.669L233.379 62.7046L167.656 94.5875C166.457 92.9291 165.172 91.3437 163.798 89.8387L185.489 61.9521L159.451 85.6013C158.253 84.5638 157.004 83.5775 155.718 82.6424L187.608 16.9259L146.637 77.3894C144.788 76.5566 142.874 75.8259 140.916 75.2049L145.753 40.2244L135.027 73.7146C133.479 73.415 131.908 73.1885 130.315 73.0278L125.07 0.173462L119.824 73.0278C117.771 73.2324 115.755 73.5538 113.775 73.9922L100.471 41.2764L107.923 75.636C106.418 76.1547 104.935 76.7392 103.488 77.3967L62.5238 16.9332L94.4067 82.657C92.7483 83.8478 91.1629 85.141 89.6579 86.5145L61.7786 64.816L85.4278 90.8542C84.3904 92.0524 83.4041 93.3017 82.4762 94.5948L16.7524 62.7046L77.216 103.669C76.3831 105.524 75.6525 107.431 75.0315 109.389L40.0509 104.545L73.5411 115.27C73.2416 116.819 73.0151 118.39 72.8543 119.99L0 129.393H80.2771C80.1529 128.027 80.0653 126.638 80.0653 125.236C80.0653 100.418 100.259 80.2314 125.07 80.2314C149.888 80.2314 170.074 100.418 170.074 125.236C170.074 126.638 169.986 128.027 169.862 129.393H250.139V129.4Z" fill="#FC9732"/>
<path fill-rule="evenodd" clip-rule="evenodd" d="M90.9961 101.703C95.2481 97.2614 101.845 96.6843 105.593 97.2176C128.768 100.534 135.942 103.084 145.14 88.8304C127.321 104.969 102.196 84.9802 90.9961 101.703Z" fill="#FF6700"/>
<path d="M166.592 127.953C158.482 123.57 149.686 120.26 140.693 118.244C138.179 117.681 135.666 117.177 133.116 116.804C133.094 116.804 133.08 116.783 133.08 116.761L133.102 113.122C133.102 113.071 133.146 113.027 133.197 113.027L135.242 113.042C135.272 113.042 135.294 113.005 135.272 112.984C135.25 112.962 135.228 112.94 135.199 112.925C132.064 111.201 128.74 109.645 125.474 108.074C125.358 108.016 125.219 108.016 125.102 108.074C121.88 109.594 118.614 111.106 115.516 112.867C115.48 112.889 115.443 112.91 115.422 112.94C115.385 112.976 115.414 113.027 115.458 113.027L117.401 113.005C117.46 113.005 117.489 113.035 117.489 113.093V116.761C117.489 116.79 117.474 116.804 117.445 116.812C114.742 117.243 112.156 117.732 109.701 118.288C100.766 120.297 91.9623 123.665 83.9843 128.034C83.9697 128.041 83.9624 128.056 83.9697 128.07L83.9843 128.092C83.9843 128.099 83.9916 128.099 83.9916 128.099C84.7952 127.771 85.5916 127.442 86.3952 127.106C91.3194 125.075 96.5723 123.782 101.76 122.642C107.305 121.422 112.952 120.64 118.702 120.289C125.73 119.858 132.736 120.107 139.714 121.042C141.138 121.232 142.95 121.531 145.156 121.933C150.271 122.876 155.107 124.045 159.666 125.433C161.551 126.01 163.838 126.865 166.512 128.004C166.57 127.997 166.599 127.975 166.592 127.953ZM123.516 116.534C123.516 116.578 123.48 116.615 123.436 116.615L120.207 116.636C120.163 116.636 120.119 116.6 120.119 116.556L120.127 112.903C120.127 112.859 120.163 112.823 120.207 112.823L123.436 112.779C123.48 112.779 123.516 112.816 123.516 112.859V116.534ZM126.548 115.826C126.548 115.877 126.512 115.913 126.461 115.913L124.035 115.906C123.984 115.906 123.947 115.869 123.947 115.818L123.955 112.867C123.955 112.816 123.991 112.779 124.042 112.779L126.468 112.786C126.519 112.786 126.556 112.823 126.556 112.874L126.548 115.826ZM130.355 116.6L127.031 116.615C127.001 116.615 126.979 116.593 126.979 116.563L126.965 112.837C126.965 112.808 126.987 112.786 127.016 112.786L130.34 112.772C130.369 112.772 130.391 112.794 130.391 112.823L130.406 116.549C130.406 116.578 130.384 116.6 130.355 116.6Z" fill="white"/>
<path d="M91.2063 127.895C88.7004 128.143 86.0776 128.582 83.6739 129.349C83.4548 129.422 83.4475 129.415 83.6666 129.327C85.6173 128.545 87.6557 127.88 89.7597 127.34C92.8136 126.558 95.9259 125.82 99.0382 125.279C110.348 123.307 121.913 122.598 133.332 123.241C135.086 123.336 137.628 123.541 140.974 123.847C148.842 124.571 156.594 125.981 164.192 128.275C165.076 128.538 165.88 128.815 166.61 129.1C166.625 129.108 166.632 129.115 166.625 129.137L166.618 129.166C166.618 129.173 166.61 129.181 166.603 129.173C165.054 128.801 163.542 128.45 161.964 128.216C159.429 127.844 156.879 127.566 154.315 127.391C148.674 126.996 141.303 126.558 133.887 126.339C133.193 126.317 132.521 126.302 131.864 126.288C124.901 126.163 118.852 126.2 113.723 126.383C106.198 126.66 98.6949 127.164 91.2063 127.895Z" fill="white"/>
<defs>
<linearGradient id="paint0_linear_612_110" x1="125.032" y1="127.411" x2="125.594" y2="88.0592" gradientUnits="userSpaceOnUse">
<stop stop-color="#EF4136"/>
<stop offset="0.2762" stop-color="#F15A29"/>
<stop offset="0.4829" stop-color="#F79034"/>
<stop offset="0.6255" stop-color="#FBB03B"/>
<stop offset="0.8415" stop-color="#FBAE39"/>
<stop offset="0.9193" stop-color="#FAA732"/>
<stop offset="0.9745" stop-color="#F89C27"/>
<stop offset="1" stop-color="#F7931E"/>
</linearGradient>
</defs>
</svg>
